<?xml version="1.0" standalone="no"?>
<!DOCTYPE svg PUBLIC "-//W3C//DTD SVG 20010904//EN"
 "http://www.w3.org/TR/2001/REC-SVG-20010904/DTD/svg10.dtd">
<svg version="1.0" xmlns="http://www.w3.org/2000/svg"
 width="280.000000pt" height="110.000000pt" viewBox="0 0 280.000000 110.000000"
 preserveAspectRatio="xMidYMid meet">

<g transform="translate(0.000000,110.000000) scale(0.100000,-0.100000)"
fill="#000000" stroke="none">
<path d="M961 776 c-34 -19 -50 -54 -51 -108 0 -38 6 -54 28 -78 31 -35 89
-49 135 -31 22 9 27 17 27 45 0 19 5 38 10 41 20 13 -2 25 -46 25 -46 0 -54
-9 -29 -30 9 -7 15 -23 13 -34 -4 -30 -42 -33 -62 -4 -18 26 -22 109 -6 139
14 25 56 25 72 -1 7 -11 21 -20 32 -20 14 0 17 5 12 23 -3 12 -6 28 -6 35 0
17 -98 15 -129 -2z"/>
<path d="M1206 773 c13 -29 17 -174 5 -186 -20 -20 -11 -27 39 -27 48 0 66 12
35 24 -8 3 -15 17 -15 31 0 21 5 25 29 25 44 0 81 35 81 76 0 56 -27 74 -111
74 -64 0 -70 -2 -63 -17z m114 -34 c17 -30 -12 -79 -46 -79 -6 0 -5 96 2 103
9 9 34 -4 44 -24z"/>
<path d="M1390 781 c0 -6 5 -13 10 -16 6 -3 10 -39 10 -80 0 -89 4 -102 41
-120 40 -21 74 -18 106 9 26 23 28 31 32 110 1 47 7 86 12 86 5 0 9 5 9 10 0
12 -77 13 -84 1 -3 -5 1 -11 9 -15 22 -8 21 -148 -1 -170 -41 -42 -74 1 -74
96 0 37 5 70 10 73 23 14 7 25 -35 25 -25 0 -45 -4 -45 -9z"/>
<path d="M1625 781 c-3 -5 -1 -12 5 -16 13 -8 13 -185 0 -185 -5 0 -10 -5 -10
-10 0 -7 30 -10 83 -8 l82 3 3 38 c2 27 -1 37 -12 37 -8 0 -18 -9 -21 -20 -6
-20 -43 -46 -52 -36 -10 10 -5 180 6 184 6 2 9 8 5 13 -7 12 -81 12 -89 0z"/>
<path d="M1805 781 c-3 -5 -1 -12 5 -16 13 -8 13 -185 0 -185 -5 0 -10 -4 -10
-10 0 -6 48 -10 125 -10 69 0 125 4 125 9 0 5 -5 11 -12 13 -6 2 -9 12 -5 21
4 12 18 17 43 17 35 0 36 -1 31 -30 l-6 -30 139 0 c127 0 160 6 130 25 -20 12
3 35 36 35 34 0 62 -29 36 -38 -7 -2 -12 -8 -12 -13 0 -5 45 -9 100 -9 60 0
100 4 100 10 0 6 -4 10 -10 10 -5 0 -10 18 -10 40 l0 40 40 0 c39 0 40 -1 40
-34 0 -19 -4 -38 -10 -41 -23 -14 -7 -25 35 -25 25 0 45 5 45 10 0 6 -4 10
-10 10 -13 0 -13 177 0 185 20 12 -1 25 -41 25 -37 0 -51 -12 -29 -25 6 -3 10
-22 10 -41 0 -33 -1 -34 -40 -34 -39 0 -40 1 -40 34 0 19 5 38 10 41 23 14 7
25 -35 25 -45 0 -54 -7 -35 -26 7 -7 10 -46 8 -95 -3 -76 -5 -84 -23 -84 -16
0 -26 18 -55 103 l-35 102 -47 0 c-36 0 -48 -4 -48 -15 0 -8 7 -15 16 -15 9 0
13 -6 11 -12 -3 -7 -17 -48 -32 -90 -21 -61 -31 -78 -46 -78 -17 0 -19 8 -19
95 0 60 4 95 11 95 5 0 7 5 4 10 -8 13 -82 13 -90 1 -3 -5 -1 -12 5 -16 6 -3
10 -46 10 -96 0 -87 -1 -90 -22 -87 -18 2 -27 21 -56 106 l-34 102 -43 0 c-47
0 -65 -13 -39 -28 15 -8 14 -17 -11 -91 -29 -88 -45 -110 -45 -62 0 36 -25 43
-35 11 -6 -20 -43 -46 -52 -36 -10 10 -5 180 6 184 6 2 9 8 5 13 -7 12 -81 12
-89 0z m290 -108 c6 -31 5 -33 -23 -33 -30 0 -30 0 -20 38 18 65 28 64 43 -5z
m333 5 c10 -38 10 -38 -19 -38 -33 0 -33 1 -18 54 12 43 22 39 37 -16z"/>
<path d="M385 680 l0 -70 128 0 127 0 0 50 c0 48 -1 50 -28 50 -15 0 -43 -5
-62 -10 -19 -6 -48 -8 -63 -4 -30 6 -26 19 8 26 18 4 17 6 -8 16 -16 7 -45 12
-65 12 l-37 0 0 -70z"/>
<path d="M41 544 c-35 -44 -25 -80 29 -109 11 -6 10 -3 -2 12 -23 25 -23 81
-1 105 9 10 11 18 5 18 -6 0 -20 -12 -31 -26z"/>
<path d="M210 500 c0 -58 3 -70 16 -70 11 0 14 5 10 16 -3 9 -6 40 -6 70 0 30
-4 54 -10 54 -6 0 -10 -30 -10 -70z"/>
<path d="M293 552 c12 -13 13 -22 5 -36 -14 -24 11 -18 26 8 9 13 7 20 -8 32
-27 20 -42 18 -23 -4z"/>
<path d="M379 552 c-15 -13 -22 -30 -22 -52 0 -22 7 -39 22 -52 31 -24 46 -23
21 2 -24 24 -26 77 -3 102 21 23 12 23 -18 0z"/>
<path d="M460 566 c0 -2 7 -9 15 -16 9 -7 15 -8 15 -2 0 5 -7 12 -15 16 -8 3
-15 4 -15 2z"/>
<path d="M530 500 c0 -51 4 -70 13 -70 9 0 13 13 11 43 -2 23 -3 54 -3 70 -1
15 -5 27 -11 27 -6 0 -10 -30 -10 -70z"/>
<path d="M610 566 c0 -2 7 -6 15 -10 8 -3 15 -1 15 4 0 6 -7 10 -15 10 -8 0
-15 -2 -15 -4z"/>
<path d="M680 559 c0 -5 5 -7 10 -4 6 3 10 8 10 11 0 2 -4 4 -10 4 -5 0 -10
-5 -10 -11z"/>
<path d="M740 516 c0 -30 -3 -61 -6 -70 -4 -11 -1 -16 10 -16 13 0 16 12 16
70 0 40 -4 70 -10 70 -5 0 -10 -24 -10 -54z"/>
<path d="M795 560 c3 -5 11 -10 16 -10 6 0 7 5 4 10 -3 6 -11 10 -16 10 -6 0
-7 -4 -4 -10z"/>
<path d="M145 550 c3 -5 8 -10 11 -10 2 0 4 5 4 10 0 6 -5 10 -11 10 -5 0 -7
-4 -4 -10z"/>
<path d="M608 503 c7 -3 16 -2 19 1 4 3 -2 6 -13 5 -11 0 -14 -3 -6 -6z"/>
<path d="M137 480 c3 -11 -1 -28 -8 -37 -12 -15 -12 -16 4 -10 10 4 21 7 23 7
2 0 4 14 4 30 0 19 -5 30 -14 30 -9 0 -12 -7 -9 -20z"/>
<path d="M475 450 c-3 -5 -1 -10 4 -10 6 0 11 5 11 10 0 6 -2 10 -4 10 -3 0
-8 -4 -11 -10z"/>
<path d="M625 440 c-3 -5 -2 -10 4 -10 5 0 13 5 16 10 3 6 2 10 -4 10 -5 0
-13 -4 -16 -10z"/>
<path d="M983 394 c-3 -8 -1 -20 6 -27 8 -8 11 -4 11 16 0 30 -7 35 -17 11z"/>
<path d="M1043 394 c-3 -8 -1 -20 6 -27 8 -8 11 -4 11 16 0 30 -7 35 -17 11z"/>
<path d="M1082 385 c0 -16 2 -22 5 -12 2 9 2 23 0 30 -3 6 -5 -1 -5 -18z"/>
<path d="M1112 385 c0 -16 2 -22 5 -12 2 9 2 23 0 30 -3 6 -5 -1 -5 -18z"/>
<path d="M1162 385 c0 -16 2 -22 5 -12 2 9 2 23 0 30 -3 6 -5 -1 -5 -18z"/>
<path d="M1212 385 c0 -16 2 -22 5 -12 2 9 2 23 0 30 -3 6 -5 -1 -5 -18z"/>
<path d="M1262 385 c0 -16 2 -22 5 -12 2 9 2 23 0 30 -3 6 -5 -1 -5 -18z"/>
<path d="M1320 385 c0 -14 5 -25 11 -25 5 0 8 4 5 9 -4 5 0 12 6 14 10 4 10 6
0 6 -7 1 -10 6 -7 11 3 6 1 10 -4 10 -6 0 -11 -11 -11 -25z"/>
<path d="M1386 393 c-4 -9 -2 -21 4 -27 7 -7 10 -2 10 17 0 31 -5 34 -14 10z"/>
<path d="M1420 385 c0 -15 4 -24 10 -20 6 3 10 12 10 20 0 8 -4 17 -10 20 -6
4 -10 -5 -10 -20z"/>
<path d="M1450 385 c0 -14 5 -25 10 -25 6 0 10 11 10 25 0 14 -4 25 -10 25 -5
0 -10 -11 -10 -25z"/>
<path d="M1522 385 c0 -16 2 -22 5 -12 2 9 2 23 0 30 -3 6 -5 -1 -5 -18z"/>
<path d="M1582 385 c6 -14 15 -25 20 -25 11 0 10 7 -2 31 -16 28 -32 23 -18
-6z"/>
<path d="M1623 394 c-3 -8 -1 -20 6 -27 8 -8 11 -4 11 16 0 30 -7 35 -17 11z"/>
<path d="M1682 385 c1 -14 6 -25 10 -25 4 0 8 11 8 25 0 14 -4 25 -10 25 -5 0
-9 -11 -8 -25z"/>
<path d="M1720 403 c1 -11 26 -43 33 -43 4 0 1 11 -5 25 -10 23 -28 35 -28 18z"/>
<path d="M1770 385 c0 -14 4 -25 9 -25 12 0 19 21 13 38 -8 21 -22 13 -22 -13z"/>
<path d="M1820 385 c0 -14 5 -25 10 -25 6 0 10 11 10 25 0 14 -4 25 -10 25 -5
0 -10 -11 -10 -25z"/>
<path d="M1882 385 c0 -16 2 -22 5 -12 2 9 2 23 0 30 -3 6 -5 -1 -5 -18z"/>
<path d="M1900 386 c0 -14 4 -27 9 -31 5 -3 9 8 9 25 -1 36 -18 41 -18 6z"/>
<path d="M1942 385 c0 -16 2 -22 5 -12 2 9 2 23 0 30 -3 6 -5 -1 -5 -18z"/>
<path d="M1982 385 c6 -14 15 -25 20 -25 12 0 9 12 -6 33 -19 25 -27 21 -14
-8z"/>
<path d="M2023 394 c-3 -8 -1 -20 6 -27 8 -8 11 -4 11 16 0 30 -7 35 -17 11z"/>
<path d="M2109 408 c-7 -30 -7 -51 0 -40 6 11 11 10 25 -3 28 -28 28 -11 1 19
-14 15 -25 26 -26 24z"/>
<path d="M2202 385 c0 -16 2 -22 5 -12 2 9 2 23 0 30 -3 6 -5 -1 -5 -18z"/>
<path d="M2240 385 c0 -14 4 -25 9 -25 12 0 19 21 13 38 -8 21 -22 13 -22 -13z"/>
<path d="M2293 394 c-3 -8 -1 -20 6 -27 8 -8 11 -4 11 16 0 30 -7 35 -17 11z"/>
<path d="M2350 385 c0 -14 5 -25 10 -25 6 0 10 11 10 25 0 14 -4 25 -10 25 -5
0 -10 -11 -10 -25z"/>
<path d="M2389 403 c0 -5 -2 -16 -4 -25 -2 -10 1 -18 6 -18 5 0 9 11 9 25 0
22 -9 37 -11 18z"/>
<path d="M2420 403 c1 -11 26 -43 33 -43 4 0 1 11 -5 25 -10 23 -28 35 -28 18z"/>
<path d="M2470 385 c0 -14 3 -25 8 -25 4 0 7 11 7 25 0 14 -3 25 -7 25 -5 0
-8 -11 -8 -25z"/>
<path d="M2505 385 c0 -14 3 -25 8 -25 4 0 7 11 7 25 0 14 -3 25 -7 25 -5 0
-8 -11 -8 -25z"/>
<path d="M2530 385 c0 -14 5 -25 10 -25 6 0 10 11 10 25 0 14 -4 25 -10 25 -5
0 -10 -11 -10 -25z"/>
<path d="M2583 394 c-3 -8 -1 -20 6 -27 8 -8 11 -4 11 16 0 30 -7 35 -17 11z"/>
<path d="M2620 385 c0 -23 3 -27 10 -15 9 13 11 13 20 0 7 -12 10 -8 10 15 0
23 -3 27 -10 15 -9 -13 -11 -13 -20 0 -7 12 -10 8 -10 -15z"/>
<path d="M2716 388 c8 -28 12 -33 20 -25 9 8 -6 47 -17 47 -6 0 -7 -10 -3 -22z"/>
<path d="M1290 370 c0 -5 5 -10 10 -10 6 0 10 5 10 10 0 6 -4 10 -10 10 -5 0
-10 -4 -10 -10z"/>
</g>
</svg>
