<?xml version="1.0" encoding="UTF-8" standalone="no"?> <svg xmlns="http://www.w3.org/2000/svg" viewBox="0 0 32 32"><title>live</title><g id="Layer_3" data-name="Layer 3"><path d="M27.06,7H4.94A2.94,2.94,0,0,0,2,9.94V22.06A2.94,2.94,0,0,0,4.94,25H27.06A2.94,2.94,0,0,0,30,22.06V9.94A2.94,2.94,0,0,0,27.06,7ZM28,22.06a.94.94,0,0,1-.94.94H4.94A.94.94,0,0,1,4,22.06V9.94A.94.94,0,0,1,4.94,9H27.06a.94.94,0,0,1,.94.94Z"/><path d="M8.95,18.32H7.13V12.74a1,1,0,0,0-2,0v6.58a1,1,0,0,0,1,1H8.95a1,1,0,0,0,0-2Z"/><path d="M11.77,11.74a1,1,0,0,0-1,1v6.58a1,1,0,0,0,2,0V12.74A1,1,0,0,0,11.77,11.74Z"/><path d="M20.55,11.75a1,1,0,0,0-1.3.55l-1.76,4.31L15.72,12.3a1,1,0,1,0-1.85.76l2.69,6.58a1,1,0,0,0,1.85,0l2.69-6.58A1,1,0,0,0,20.55,11.75Z"/><path d="M25.88,13.74a1,1,0,0,0,0-2H23.05a1,1,0,0,0-1,1v6.58a1,1,0,0,0,1,1h2.82a1,1,0,0,0,0-2H24.05V17h1.82a1,1,0,0,0,0-2H24.05V13.74Z"/></g></svg>