<?xml version="1.0" encoding="UTF-8" standalone="no"?> <svg id="Briefcase" xmlns="http://www.w3.org/2000/svg" viewBox="0 0 32 32"><title>Briefcase</title><path d="M28,19.36V23c0,2.76-2.24,6-5,6H9c-2.76,0-5-3.24-5-6V19.36a6.987,6.987,0,0,0,2.85,1.16l4.43.74A3,3,0,0,0,14,23h4a3,3,0,0,0,2.72-1.74l4.43-.74A6.987,6.987,0,0,0,28,19.36Z"/><path d="M24,7H21V6a3.009,3.009,0,0,0-3-3H14a3.009,3.009,0,0,0-3,3V7H8c-2.76,0-5,3.24-5,6v.61a4.978,4.978,0,0,0,4.18,4.93l3.82.64V18a3.009,3.009,0,0,1,3-3h4a3.009,3.009,0,0,1,3,3v1.18l3.82-.64A4.978,4.978,0,0,0,29,13.61V13C29,10.24,26.76,7,24,7ZM13,7V6a1,1,0,0,1,1-1h4a1,1,0,0,1,1,1V7Z"/><rect x="13" y="17" width="6" height="4" rx="1"/></svg>