<?xml version="1.0" encoding="utf-8"?>
<!-- Generator: Adobe Illustrator 23.0.3, SVG Export Plug-In . SVG Version: 6.00 Build 0)  -->
<svg version="1.1" id="Layer_1" xmlns="http://www.w3.org/2000/svg" xmlns:xlink="http://www.w3.org/1999/xlink" x="0px" y="0px"
	 viewBox="0 0 387.9 387.9" style="enable-background:new 0 0 387.9 387.9;" xml:space="preserve">
<style type="text/css">
	.st0{fill:#258ACE;}
	.st1{fill:#FDB735;}
	.st2{fill:#36C136;}
	.st3{fill:#FD2475;}
	.st4{fill:#895EAD;}
	.st5{fill:#D83632;}
	.st6{fill:#30D4A2;}
	.st7{fill:#46CCCC;}
	.st8{fill:#4CC3CB;}
	.st9{fill:#60B0E2;}
	.st10{fill:none;stroke:#000000;stroke-width:14;stroke-miterlimit:10;}
	.st11{fill:#FFFFFF;}
</style>
<circle cx="194" cy="194" r="168.8"/>
<g>
	<path class="st11" d="M194,144.1c20.5,0,40.9,0,61.4,0c1.4,0,3.4-0.7,4,1c0.6,1.6-1.2,2.5-2.2,3.5c-19.8,19.5-39.7,38.9-59.4,58.5
		c-3,2.9-4.8,2.8-7.7-0.1c-19.6-19.5-39.4-38.8-59-58.2c-1.1-1.1-3.3-1.9-2.5-3.8c0.8-1.8,3-0.9,4.6-1
		C153.4,144.1,173.7,144.1,194,144.1z"/>
	<path class="st11" d="M193.4,243.8c-20.3,0-40.6,0-61,0c-1.7,0-4.1,0.9-5-1.1c-0.7-1.7,1.5-2.8,2.5-3.9
		c11.9-12.6,23.8-25.2,35.6-37.8c2-2.2,3.2-2.5,5.4-0.2c6.4,6.6,13.1,12.8,19.5,19.4c2.6,2.7,4.4,2.6,7,0
		c6.4-6.5,13.1-12.8,19.5-19.3c1.8-1.9,2.9-1.8,4.7,0.1c12.4,13.1,24.8,26,37.2,39.1c0.8,0.8,2.1,1.7,1.5,2.9c-0.6,1.5-2.3,1-3.6,1
		C235.7,243.8,214.5,243.8,193.4,243.8z"/>
	<path class="st11" d="M268.8,193c0,12.3,0,24.6,0,36.9c0,1.6,0.8,3.7-0.9,4.6c-2,0.9-2.8-1.3-3.8-2.4
		c-11.9-12.4-23.7-24.8-35.6-37.1c-2-2-2.5-3.1-0.1-5.4c12.1-11.6,24-23.5,36.1-35.3c1-0.9,1.7-2.9,3.6-1.9c1.4,0.7,0.8,2.4,0.8,3.7
		C268.8,168.4,268.8,180.7,268.8,193z"/>
	<path class="st11" d="M119.1,193c0-12.3,0-24.6,0-36.9c0-1.4-0.7-3.3,1.2-3.9c1.5-0.4,2.3,1.1,3.2,2c12,11.8,23.9,23.6,36,35.3
		c1.9,1.8,1.9,2.8,0.1,4.7c-12.2,12.7-24.2,25.6-36.4,38.4c-0.9,0.9-1.6,2.5-3.1,1.9c-1.5-0.6-1-2.3-1-3.6
		C119.1,218.3,119.1,205.7,119.1,193z"/>
</g>
</svg>
