<?xml version="1.0" encoding="UTF-8" standalone="no"?> <svg xmlns="http://www.w3.org/2000/svg" viewBox="0 0 512 512"><g id="Skills_cog"><path d="M422.9171,307.7019,389.3646,284.038a136.2519,136.2519,0,0,0,0-56.0756l33.5525-23.6639a20.4447,20.4447,0,0,0,5.9221-26.931L410.518,145.6329a20.4457,20.4457,0,0,0-26.2846-8.336L346.8147,154.591a135.9316,135.9316,0,0,0-48.4091-28.0564l-3.7217-40.94A20.4463,20.4463,0,0,0,274.3218,67H237.6781a20.446,20.446,0,0,0-20.3617,18.595l-3.7217,40.94a135.9266,135.9266,0,0,0-48.4091,28.0568l-37.4191-17.2945a20.4458,20.4458,0,0,0-26.2846,8.336L83.1607,177.3675a20.4444,20.4444,0,0,0,5.9225,26.931l33.5525,23.6643a136.2527,136.2527,0,0,0,0,56.0748L89.0832,307.7019a20.4443,20.4443,0,0,0-5.9225,26.931l18.3212,31.7342a20.4456,20.4456,0,0,0,26.2846,8.3364l37.4191-17.2945a135.9266,135.9266,0,0,0,48.4091,28.0568l3.7217,40.9392A20.4456,20.4456,0,0,0,237.6781,445h36.6437a20.446,20.446,0,0,0,20.3621-18.595l3.7217-40.9392a135.9316,135.9316,0,0,0,48.4091-28.0564l37.4187,17.2941a20.4455,20.4455,0,0,0,26.2846-8.3364l18.3212-31.7342A20.4446,20.4446,0,0,0,422.9171,307.7019ZM256,326a70,70,0,1,1,70-70A70,70,0,0,1,256,326Z"/></g></svg>