<svg id="visual" viewBox="0 0 1920 1080" width="1920" height="1080" xmlns="http://www.w3.org/2000/svg" xmlns:xlink="http://www.w3.org/1999/xlink" version="1.1"><rect x="0" y="0" width="1920" height="1080" fill="#001220"></rect><defs><linearGradient id="grad1_0" x1="43.8%" y1="0%" x2="100%" y2="100%"><stop offset="14.444444444444446%" stop-color="#fbae3c" stop-opacity="1"></stop><stop offset="85.55555555555554%" stop-color="#fbae3c" stop-opacity="1"></stop></linearGradient></defs><defs><linearGradient id="grad1_1" x1="43.8%" y1="0%" x2="100%" y2="100%"><stop offset="14.444444444444446%" stop-color="#fbae3c" stop-opacity="1"></stop><stop offset="85.55555555555554%" stop-color="#f48350" stop-opacity="1"></stop></linearGradient></defs><defs><linearGradient id="grad1_2" x1="43.8%" y1="0%" x2="100%" y2="100%"><stop offset="14.444444444444446%" stop-color="#d96162" stop-opacity="1"></stop><stop offset="85.55555555555554%" stop-color="#f48350" stop-opacity="1"></stop></linearGradient></defs><defs><linearGradient id="grad1_3" x1="43.8%" y1="0%" x2="100%" y2="100%"><stop offset="14.444444444444446%" stop-color="#d96162" stop-opacity="1"></stop><stop offset="85.55555555555554%" stop-color="#af4b6d" stop-opacity="1"></stop></linearGradient></defs><defs><linearGradient id="grad1_4" x1="43.8%" y1="0%" x2="100%" y2="100%"><stop offset="14.444444444444446%" stop-color="#7c3e6b" stop-opacity="1"></stop><stop offset="85.55555555555554%" stop-color="#af4b6d" stop-opacity="1"></stop></linearGradient></defs><defs><linearGradient id="grad1_5" x1="43.8%" y1="0%" x2="100%" y2="100%"><stop offset="14.444444444444446%" stop-color="#7c3e6b" stop-opacity="1"></stop><stop offset="85.55555555555554%" stop-color="#49335c" stop-opacity="1"></stop></linearGradient></defs><defs><linearGradient id="grad1_6" x1="43.8%" y1="0%" x2="100%" y2="100%"><stop offset="14.444444444444446%" stop-color="#1d2540" stop-opacity="1"></stop><stop offset="85.55555555555554%" stop-color="#49335c" stop-opacity="1"></stop></linearGradient></defs><defs><linearGradient id="grad1_7" x1="43.8%" y1="0%" x2="100%" y2="100%"><stop offset="14.444444444444446%" stop-color="#1d2540" stop-opacity="1"></stop><stop offset="85.55555555555554%" stop-color="#001220" stop-opacity="1"></stop></linearGradient></defs><defs><linearGradient id="grad2_0" x1="0%" y1="0%" x2="56.3%" y2="100%"><stop offset="14.444444444444446%" stop-color="#fbae3c" stop-opacity="1"></stop><stop offset="85.55555555555554%" stop-color="#fbae3c" stop-opacity="1"></stop></linearGradient></defs><defs><linearGradient id="grad2_1" x1="0%" y1="0%" x2="56.3%" y2="100%"><stop offset="14.444444444444446%" stop-color="#f48350" stop-opacity="1"></stop><stop offset="85.55555555555554%" stop-color="#fbae3c" stop-opacity="1"></stop></linearGradient></defs><defs><linearGradient id="grad2_2" x1="0%" y1="0%" x2="56.3%" y2="100%"><stop offset="14.444444444444446%" stop-color="#f48350" stop-opacity="1"></stop><stop offset="85.55555555555554%" stop-color="#d96162" stop-opacity="1"></stop></linearGradient></defs><defs><linearGradient id="grad2_3" x1="0%" y1="0%" x2="56.3%" y2="100%"><stop offset="14.444444444444446%" stop-color="#af4b6d" stop-opacity="1"></stop><stop offset="85.55555555555554%" stop-color="#d96162" stop-opacity="1"></stop></linearGradient></defs><defs><linearGradient id="grad2_4" x1="0%" y1="0%" x2="56.3%" y2="100%"><stop offset="14.444444444444446%" stop-color="#af4b6d" stop-opacity="1"></stop><stop offset="85.55555555555554%" stop-color="#7c3e6b" stop-opacity="1"></stop></linearGradient></defs><defs><linearGradient id="grad2_5" x1="0%" y1="0%" x2="56.3%" y2="100%"><stop offset="14.444444444444446%" stop-color="#49335c" stop-opacity="1"></stop><stop offset="85.55555555555554%" stop-color="#7c3e6b" stop-opacity="1"></stop></linearGradient></defs><defs><linearGradient id="grad2_6" x1="0%" y1="0%" x2="56.3%" y2="100%"><stop offset="14.444444444444446%" stop-color="#49335c" stop-opacity="1"></stop><stop offset="85.55555555555554%" stop-color="#1d2540" stop-opacity="1"></stop></linearGradient></defs><defs><linearGradient id="grad2_7" x1="0%" y1="0%" x2="56.3%" y2="100%"><stop offset="14.444444444444446%" stop-color="#001220" stop-opacity="1"></stop><stop offset="85.55555555555554%" stop-color="#1d2540" stop-opacity="1"></stop></linearGradient></defs><g transform="translate(1920, 0)"><path d="M0 756C-131.8 736 -263.6 716 -378 654.7C-492.4 593.5 -589.4 491 -649.5 375C-709.6 259 -732.8 129.5 -756 0L0 0Z" fill="#0c1c30"></path><path d="M0 661.5C-115.3 644 -230.6 626.5 -330.7 572.9C-430.9 519.3 -515.7 429.6 -568.3 328.1C-620.9 226.6 -641.2 113.3 -661.5 0L0 0Z" fill="#312c4f"></path><path d="M0 567C-98.8 552 -197.7 537 -283.5 491C-369.3 445.1 -442.1 368.2 -487.1 281.3C-532.2 194.3 -549.6 97.1 -567 0L0 0Z" fill="#623965"></path><path d="M0 472.5C-82.4 460 -164.7 447.5 -236.2 409.2C-307.8 370.9 -368.4 306.9 -405.9 234.4C-443.5 161.9 -458 80.9 -472.5 0L0 0Z" fill="#96446e"></path><path d="M0 378C-65.9 368 -131.8 358 -189 327.4C-246.2 296.7 -294.7 245.5 -324.8 187.5C-354.8 129.5 -366.4 64.8 -378 0L0 0Z" fill="#c55469"></path><path d="M0 283.5C-49.4 276 -98.8 268.5 -141.7 245.5C-184.7 222.6 -221 184.1 -243.6 140.6C-266.1 97.1 -274.8 48.6 -283.5 0L0 0Z" fill="#e9705a"></path><path d="M0 189C-32.9 184 -65.9 179 -94.5 163.7C-123.1 148.4 -147.4 122.7 -162.4 93.8C-177.4 64.8 -183.2 32.4 -189 0L0 0Z" fill="#fa9845"></path><path d="M0 94.5C-16.5 92 -32.9 89.5 -47.2 81.8C-61.6 74.2 -73.7 61.4 -81.2 46.9C-88.7 32.4 -91.6 16.2 -94.5 0L0 0Z" fill="#fbae3c"></path></g><g transform="translate(0, 1080)"><path d="M0 -756C134.6 -737.6 269.1 -719.2 378 -654.7C486.9 -590.3 570 -479.8 628.7 -363C687.5 -246.2 721.7 -123.1 756 0L0 0Z" fill="#0c1c30"></path><path d="M0 -661.5C117.7 -645.4 235.5 -629.3 330.7 -572.9C426 -516.5 498.8 -419.8 550.1 -317.6C601.5 -215.4 631.5 -107.7 661.5 0L0 0Z" fill="#312c4f"></path><path d="M0 -567C100.9 -553.2 201.9 -539.4 283.5 -491C365.1 -442.7 427.5 -359.8 471.6 -272.3C515.6 -184.7 541.3 -92.3 567 0L0 0Z" fill="#623965"></path><path d="M0 -472.5C84.1 -461 168.2 -449.5 236.2 -409.2C304.3 -368.9 356.3 -299.9 393 -226.9C429.7 -153.9 451.1 -76.9 472.5 0L0 0Z" fill="#96446e"></path><path d="M0 -378C67.3 -368.8 134.6 -359.6 189 -327.4C243.4 -295.1 285 -239.9 314.4 -181.5C343.7 -123.1 360.9 -61.6 378 0L0 0Z" fill="#c55469"></path><path d="M0 -283.5C50.5 -276.6 100.9 -269.7 141.7 -245.5C182.6 -221.4 213.8 -179.9 235.8 -136.1C257.8 -92.3 270.6 -46.2 283.5 0L0 0Z" fill="#e9705a"></path><path d="M0 -189C33.6 -184.4 67.3 -179.8 94.5 -163.7C121.7 -147.6 142.5 -119.9 157.2 -90.8C171.9 -61.6 180.4 -30.8 189 0L0 0Z" fill="#fa9845"></path><path d="M0 -94.5C16.8 -92.2 33.6 -89.9 47.2 -81.8C60.9 -73.8 71.3 -60 78.6 -45.4C85.9 -30.8 90.2 -15.4 94.5 0L0 0Z" fill="#fbae3c"></path></g></svg>