<svg xmlns="http://www.w3.org/2000/svg" viewBox="0 0 1440 180" xmlns:v="https://vecta.io/nano"><defs><linearGradient id="A" x1="0" x2="0" y1="1" y2="0"><stop stop-color="rgba(1, 198, 255, 1)" offset="0%"/><stop stop-color="rgba(255, 255, 255, 1)" offset="100%"/></linearGradient></defs><path fill="url(#A)" d="M0 108l34.3 3c34.3 3 102.7 9 171.7 0 68.3-9 137-33 205-39 69-6 138 6 206 24 68.7 18 137 42 206 54 68.4 12 137 12 206 3 68.1-9 137-27 205-51 68.9-24 137-54 206-57 68.6-3 137 21 206 45 68.3 24 137 48 205 39 69-9 138-51 206-72 68.7-21 137-21 206-18 68.4 3 137 9 206 24 68.1 15 137 39 205 39 68.9 0 137-24 206-18 68.6 6 137 42 206 48 68.3 6 137-18 205-30 69-12 138-12 206 0 68.7 12 137 36 206 27 68.4-9 137-51 206-72 68.1-21 137-21 205 0 68.9 21 137 63 206 75 68.6 12 137-6 206-27 68.3-21 137-45 205-48 69-3 138 15 172 24l34.1 9v90h-34.2H4731h-205-206-206-205-206-206-206-205-206-206-205-206-206-206-205-206-206-205-206-206-206-205H34 0z"/><defs><linearGradient id="B" x1="0" x2="0" y1="1" y2="0"><stop stop-color="rgba(129.084, 226.743, 255, 1)" offset="0%"/><stop stop-color="rgba(255, 255, 255, 1)" offset="100%"/></linearGradient></defs><path fill="url(#B)" d="M0 104l34.3-9C68.6 86 137 68 206 77c68.3 9 137 45 205 60 69 15 138 9 206 0 68.7-9 137-21 206-15 68.4 6 137 30 206 27 68.1-3 137-33 205-33 68.9 0 137 30 206 27 68.6-3 137-39 206-57 68.3-18 137-18 205-12 69 6 138 18 206 30 68.7 12 137 24 206 18 68.4-6 137-30 206-45 68.1-15 137-21 205 3 68.9 24 137 78 206 84 68.6 6 137-36 206-42 68.3-6 137 24 205 33 69 9 138-3 206 0 68.7 3 137 21 206 9 68.4-12 137-54 206-78 68.1-24 137-30 205-12 68.9 18 137 60 206 81 68.6 21 137 21 206 12 68.3-9 137-27 205-33 69-6 138 0 172 3l34.1 3v90h-34.2H4731h-205-206-206-205-206-206-206-205-206-206-205-206-206-206-205-206-206-205-206-206-206-205H34 0z" opacity=".9"/></svg>