<svg xmlns="http://www.w3.org/2000/svg" viewBox="0 0 1440 240" xmlns:v="https://vecta.io/nano"><defs><linearGradient id="A" x1="0" x2="0" y1="1" y2="0"><stop stop-color="rgba(1, 198, 255, 1)" offset="0%"/><stop stop-color="rgba(209.834, 209.834, 209.834, 1)" offset="100%"/></linearGradient></defs><path fill="url(#A)" d="M0 168l48-12c48-12 144-36 240-36s192 24 288 20 192-36 288-32 192 44 288 48 192-28 288-28 192 32 288 52 192 28 288 12 192-56 288-84 192-44 288-32 192 52 288 48 192-52 288-76 192-24 288 0 192 72 288 92 192 12 288 0l288-40c96-12 192-20 288-20s192 8 288 12l288 8c96 4 192 12 288-4s192-56 288-64 192 16 288 24 192 0 288 4 192 20 288 40 192 44 240 56l48 12v72h-48-240-288-288-288-288-288-288-288-288-288-288-288-288-288-288-288-288-288-288-288-288-288-288H48 0z"/><defs><linearGradient id="B" x1="0" x2="0" y1="1" y2="0"><stop stop-color="rgba(1, 198, 255, 1)" offset="0%"/><stop stop-color="rgba(255, 255, 255, 1)" offset="100%"/></linearGradient></defs><path fill="url(#B)" d="M0 170l48-16c48-16 144-48 240-64s192-16 288 8 192 72 288 76 192-36 288-36 192 40 288 32 192-64 288-68 192 44 288 72 192 36 288 20 192-56 288-52 192 52 288 44 192-72 288-104 192-32 288 4 192 108 288 120 192-36 288-56 192-12 288-8 192 4 288 12 192 24 288 32 192 8 288 4 192-12 288-28 192-40 288-56 192-24 288-28 192-4 288 28 192 96 288 108 192-28 240-48l48-20v144h-48-240-288-288-288-288-288-288-288-288-288-288-288-288-288-288-288-288-288-288-288-288-288-288H48 0z" opacity=".9"/></svg>